<svg width="13" height="15" viewBox="0 0 13 15" fill="none" xmlns="http://www.w3.org/2000/svg">
<path d="M8.98187 1.28805C7.67799 0.985074 6.32201 0.985074 5.01813 1.28805C4.26507 0.826185 3.69013 0.613919 3.272 0.524319C3.09354 0.484042 2.91093 0.465065 2.728 0.467785C2.64476 0.470041 2.56192 0.48004 2.48053 0.497652L2.46987 0.499785L2.4656 0.501919H2.4624L2.60853 1.01499L2.4624 0.502985C2.38746 0.524162 2.31807 0.561492 2.2591 0.612353C2.20013 0.663213 2.15302 0.72637 2.12107 0.797385C1.80637 1.50214 1.74642 2.29436 1.95147 3.03845C1.42041 3.68203 1.13101 4.49099 1.13333 5.32539C1.13333 6.98192 1.62187 8.09552 2.45493 8.81125C3.0384 9.31259 3.74667 9.57925 4.45707 9.73179C4.34527 10.0601 4.30313 10.4081 4.33333 10.7537V11.3915C3.8992 11.4822 3.5984 11.4534 3.384 11.383C3.11627 11.2945 2.9104 11.1163 2.71307 10.8603C2.60991 10.7223 2.51379 10.5792 2.42507 10.4315L2.36427 10.3323C2.28749 10.2047 2.20783 10.0788 2.12533 9.95472C1.92267 9.65499 1.62187 9.27952 1.13547 9.15152L0.6192 9.01605L0.348267 10.0486L0.864533 10.1841C0.949867 10.2054 1.0608 10.2854 1.2432 10.5531C1.31341 10.6588 1.38098 10.7662 1.44587 10.8753L1.5184 10.9926C1.61867 11.1547 1.73387 11.3339 1.8672 11.5089C2.13707 11.8609 2.50507 12.2161 3.0512 12.3963C3.42453 12.5201 3.84907 12.5499 4.33333 12.4753V14.4667C4.33333 14.6082 4.38952 14.7438 4.48954 14.8438C4.58956 14.9439 4.72522 15.0001 4.86667 15.0001H9.13333C9.27478 15.0001 9.41044 14.9439 9.51046 14.8438C9.61048 14.7438 9.66667 14.6082 9.66667 14.4667V10.6662C9.66667 10.3302 9.65173 10.0219 9.5568 9.73499C10.264 9.58565 10.9669 9.31899 11.5472 8.81765C12.3792 8.09659 12.8667 6.97232 12.8667 5.30619V5.30512C12.864 4.47756 12.5745 3.67652 12.0475 3.03845C12.2523 2.2947 12.1923 1.50289 11.8779 0.798452C11.8462 0.727352 11.7993 0.664058 11.7405 0.613014C11.6817 0.561971 11.6124 0.524415 11.5376 0.502985L11.3915 1.01499C11.5376 0.502985 11.5365 0.502985 11.5355 0.502985L11.5333 0.501919L11.5291 0.499785L11.5195 0.497652C11.4931 0.490802 11.4664 0.48546 11.4395 0.481652C11.3836 0.473499 11.3273 0.468868 11.2709 0.467785C11.088 0.465085 10.9054 0.484061 10.7269 0.524319C10.3099 0.613919 9.73493 0.826185 8.98187 1.28805Z" fill="#737373"/>
</svg>
