<svg width="17" height="16" viewBox="0 0 17 16" fill="none" xmlns="http://www.w3.org/2000/svg">
<path d="M9.15391 12.6508C9.24131 12.7379 9.31065 12.8413 9.35797 12.9553C9.40529 13.0693 9.42965 13.1914 9.42965 13.3148C9.42965 13.4382 9.40529 13.5604 9.35797 13.6743C9.31065 13.7883 9.24131 13.8918 9.15391 13.9789L8.68985 14.4429C7.81049 15.3223 6.61782 15.8163 5.37422 15.8163C4.13062 15.8163 2.93795 15.3223 2.0586 14.4429C1.17924 13.5636 0.685219 12.3709 0.685219 11.1273C0.685219 9.88372 1.17924 8.69105 2.0586 7.81169L3.94297 5.9281C4.78788 5.0811 5.92467 4.58921 7.12049 4.55319C8.31631 4.51717 9.48064 4.93974 10.375 5.73435C10.4673 5.81642 10.5426 5.91588 10.5965 6.02705C10.6504 6.13821 10.6819 6.2589 10.6891 6.38223C10.6964 6.50556 10.6793 6.62911 10.6388 6.74582C10.5983 6.86254 10.5352 6.97014 10.4531 7.06247C10.3711 7.15481 10.2716 7.23007 10.1604 7.28397C10.0493 7.33787 9.92857 7.36934 9.80524 7.3766C9.68192 7.38385 9.55837 7.36675 9.44165 7.32625C9.32493 7.28576 9.21734 7.22267 9.125 7.1406C8.58869 6.66429 7.89065 6.4109 7.17369 6.43224C6.45672 6.45359 5.77499 6.74807 5.26797 7.25544L3.38516 9.13669C2.85763 9.66422 2.56126 10.3797 2.56126 11.1258C2.56126 11.8718 2.85763 12.5873 3.38516 13.1148C3.91269 13.6423 4.62818 13.9387 5.37422 13.9387C6.12026 13.9387 6.83575 13.6423 7.36328 13.1148L7.82735 12.6508C7.91441 12.5636 8.01781 12.4944 8.13162 12.4473C8.24543 12.4001 8.36742 12.3758 8.49063 12.3758C8.61383 12.3758 8.73582 12.4001 8.84963 12.4473C8.96344 12.4944 9.06684 12.5636 9.15391 12.6508ZM14.9414 1.557C14.0613 0.678998 12.8689 0.185913 11.6258 0.185913C10.3826 0.185913 9.19023 0.678998 8.31016 1.557L7.8461 2.02107C7.66998 2.19719 7.57103 2.43606 7.57103 2.68513C7.57103 2.9342 7.66998 3.17307 7.8461 3.34919C8.02222 3.52531 8.26109 3.62426 8.51016 3.62426C8.75923 3.62426 8.9981 3.52531 9.17422 3.34919L9.63828 2.88513C10.1658 2.3576 10.8813 2.06123 11.6273 2.06123C12.3734 2.06123 13.0889 2.3576 13.6164 2.88513C14.1439 3.41266 14.4403 4.12815 14.4403 4.87419C14.4403 5.62023 14.1439 6.33572 13.6164 6.86325L11.7328 8.74763C11.2253 9.25479 10.5432 9.54884 9.82609 9.56961C9.10894 9.59038 8.41097 9.33629 7.875 8.85935C7.78267 8.77727 7.67507 8.71419 7.55835 8.67369C7.44164 8.6332 7.31809 8.61609 7.19476 8.62335C7.07143 8.6306 6.95074 8.66208 6.83958 8.71597C6.72841 8.76987 6.62895 8.84514 6.54688 8.93747C6.4648 9.02981 6.40172 9.13741 6.36122 9.25412C6.32073 9.37084 6.30362 9.49439 6.31088 9.61772C6.31813 9.74104 6.3496 9.86173 6.4035 9.9729C6.4574 10.0841 6.53267 10.1835 6.625 10.2656C7.51874 11.06 8.68229 11.4829 9.87755 11.4476C11.0728 11.4123 12.2094 10.9215 13.0547 10.0758L14.9391 8.19216C15.8181 7.3123 16.3121 6.11957 16.3125 4.87585C16.3129 3.63212 15.8198 2.43905 14.9414 1.55857V1.557Z" fill="#633CFF"/>
</svg>
