<svg width="14" height="12" viewBox="0 0 14 12" fill="none" xmlns="http://www.w3.org/2000/svg">
<path d="M13.973 1.99984C13.4597 2.23317 12.9064 2.3865 12.333 2.45984C12.9197 2.1065 13.373 1.5465 13.5864 0.873171C13.033 1.2065 12.4197 1.43984 11.773 1.57317C11.2464 0.999837 10.5064 0.666504 9.66637 0.666504C8.0997 0.666504 6.8197 1.9465 6.8197 3.5265C6.8197 3.75317 6.84637 3.97317 6.89303 4.17984C4.5197 4.05984 2.40637 2.91984 0.999701 1.19317C0.753034 1.61317 0.613034 2.1065 0.613034 2.6265C0.613034 3.61984 1.11303 4.49984 1.88637 4.99984C1.41303 4.99984 0.973034 4.8665 0.586367 4.6665V4.6865C0.586367 6.07317 1.57303 7.23317 2.8797 7.49317C2.46019 7.60798 2.01976 7.62395 1.59303 7.53984C1.7741 8.10816 2.12873 8.60544 2.60704 8.96179C3.08536 9.31814 3.66333 9.51563 4.2597 9.5265C3.24879 10.3268 1.9957 10.7594 0.706367 10.7532C0.479701 10.7532 0.253034 10.7398 0.0263672 10.7132C1.29303 11.5265 2.7997 11.9998 4.41303 11.9998C9.66637 11.9998 12.553 7.63984 12.553 3.85984C12.553 3.73317 12.553 3.61317 12.5464 3.4865C13.1064 3.0865 13.5864 2.57984 13.973 1.99984Z" fill="#737373"/>
</svg>
