<svg width="14" height="12" viewBox="0 0 14 12" fill="none" xmlns="http://www.w3.org/2000/svg">
<path d="M7.16267 0.666748C7.51867 0.668748 8.40933 0.677415 9.356 0.715415L9.692 0.730081C10.6447 0.774748 11.5967 0.852081 12.0693 0.983415C12.6993 1.16075 13.194 1.67675 13.3613 2.33141C13.628 3.37141 13.6613 5.39942 13.6653 5.89075L13.666 5.99208V6.10808C13.6613 6.59941 13.628 8.62808 13.3613 9.66741C13.192 10.3241 12.6967 10.8407 12.0693 11.0154C11.5967 11.1467 10.6447 11.2241 9.692 11.2687L9.356 11.2841C8.40933 11.3214 7.51867 11.3307 7.16267 11.3321L7.006 11.3327H6.836C6.08267 11.3281 2.932 11.2941 1.92933 11.0154C1.3 10.8381 0.804665 10.3221 0.637332 9.66741C0.370665 8.62741 0.337332 6.59941 0.333332 6.10808V5.89075C0.337332 5.39942 0.370665 3.37075 0.637332 2.33141C0.806665 1.67475 1.302 1.15808 1.93 0.984081C2.932 0.704748 6.08333 0.670748 6.83667 0.666748H7.16267ZM5.666 3.66675V8.33342L9.666 6.00008L5.666 3.66675Z" fill="#737373"/>
</svg>
